ISO-10303-21;
HEADER;
/* Generated by software containing ST-Developer
 * from STEP Tools, Inc. (www.steptools.com) 
 */

FILE_DESCRIPTION(
/* description */ (''),
/* implementation_level */ '2;1');

FILE_NAME(
/* name */ 'Bottom.step',
/* time_stamp */ '2026-09-26T22:34:55+02:00',
/* author */ (''),
/* organization */ (''),
/* preprocessor_version */ 'ST-DEVELOPER v20.2',
/* originating_system */ 'Autodesk Translation Framework v15.15.0.0',
/* authorisation */ '');

FILE_SCHEMA (('AUTOMOTIVE_DESIGN { 1 0 10303 214 3 1 1 }'));
ENDSEC;

DATA;
#10=MECHANICAL_DESIGN_GEOMETRIC_PRESENTATION_REPRESENTATION('',(#13),#915);
#11=SHAPE_REPRESENTATION_RELATIONSHIP('SRR','None',#921,#12);
#12=ADVANCED_BREP_SHAPE_REPRESENTATION('',(#14),#914);
#13=STYLED_ITEM('',(#931),#14);
#14=MANIFOLD_SOLID_BREP('Bottom',#547);
#15=FACE_BOUND('',#101,.T.);
#16=FACE_BOUND('',#102,.T.);
#17=FACE_BOUND('',#103,.T.);
#18=FACE_BOUND('',#104,.T.);
#19=FACE_BOUND('',#112,.T.);
#20=FACE_BOUND('',#115,.T.);
#21=FACE_BOUND('',#118,.T.);
#22=FACE_BOUND('',#121,.T.);
#23=FACE_BOUND('',#132,.T.);
#24=FACE_BOUND('',#134,.T.);
#25=FACE_BOUND('',#135,.T.);
#26=FACE_BOUND('',#136,.T.);
#27=FACE_BOUND('',#137,.T.);
#28=FACE_BOUND('',#138,.T.);
#29=CIRCLE('',#554,7.);
#30=CIRCLE('',#555,7.);
#31=CIRCLE('',#557,7.);
#32=CIRCLE('',#558,7.);
#33=CIRCLE('',#559,7.);
#34=CIRCLE('',#560,3.);
#35=CIRCLE('',#561,2.99999999999999);
#36=CIRCLE('',#562,2.99999999999999);
#37=CIRCLE('',#563,3.);
#38=CIRCLE('',#566,7.);
#39=CIRCLE('',#568,7.);
#40=CIRCLE('',#571,7.);
#41=CIRCLE('',#573,3.);
#42=CIRCLE('',#575,1.7);
#43=CIRCLE('',#577,2.99999999999999);
#44=CIRCLE('',#579,1.7);
#45=CIRCLE('',#581,2.99999999999999);
#46=CIRCLE('',#583,1.7);
#47=CIRCLE('',#585,3.);
#48=CIRCLE('',#587,1.7);
#49=CIRCLE('',#589,1.7);
#50=CIRCLE('',#591,1.7);
#51=CIRCLE('',#593,1.7);
#52=CIRCLE('',#595,1.7);
#53=CYLINDRICAL_SURFACE('',#553,7.);
#54=CYLINDRICAL_SURFACE('',#565,7.);
#55=CYLINDRICAL_SURFACE('',#567,7.);
#56=CYLINDRICAL_SURFACE('',#570,7.);
#57=CYLINDRICAL_SURFACE('',#572,3.);
#58=CYLINDRICAL_SURFACE('',#576,2.99999999999999);
#59=CYLINDRICAL_SURFACE('',#580,2.99999999999999);
#60=CYLINDRICAL_SURFACE('',#584,3.);
#61=CYLINDRICAL_SURFACE('',#588,1.7);
#62=CYLINDRICAL_SURFACE('',#590,1.7);
#63=CYLINDRICAL_SURFACE('',#592,1.7);
#64=CYLINDRICAL_SURFACE('',#594,1.7);
#65=FACE_OUTER_BOUND('',#95,.T.);
#66=FACE_OUTER_BOUND('',#96,.T.);
#67=FACE_OUTER_BOUND('',#97,.T.);
#68=FACE_OUTER_BOUND('',#98,.T.);
#69=FACE_OUTER_BOUND('',#99,.T.);
#70=FACE_OUTER_BOUND('',#100,.T.);
#71=FACE_OUTER_BOUND('',#105,.T.);
#72=FACE_OUTER_BOUND('',#106,.T.);
#73=FACE_OUTER_BOUND('',#107,.T.);
#74=FACE_OUTER_BOUND('',#108,.T.);
#75=FACE_OUTER_BOUND('',#109,.T.);
#76=FACE_OUTER_BOUND('',#110,.T.);
#77=FACE_OUTER_BOUND('',#111,.T.);
#78=FACE_OUTER_BOUND('',#113,.T.);
#79=FACE_OUTER_BOUND('',#114,.T.);
#80=FACE_OUTER_BOUND('',#116,.T.);
#81=FACE_OUTER_BOUND('',#117,.T.);
#82=FACE_OUTER_BOUND('',#119,.T.);
#83=FACE_OUTER_BOUND('',#120,.T.);
#84=FACE_OUTER_BOUND('',#122,.T.);
#85=FACE_OUTER_BOUND('',#123,.T.);
#86=FACE_OUTER_BOUND('',#124,.T.);
#87=FACE_OUTER_BOUND('',#125,.T.);
#88=FACE_OUTER_BOUND('',#126,.T.);
#89=FACE_OUTER_BOUND('',#127,.T.);
#90=FACE_OUTER_BOUND('',#128,.T.);
#91=FACE_OUTER_BOUND('',#129,.T.);
#92=FACE_OUTER_BOUND('',#130,.T.);
#93=FACE_OUTER_BOUND('',#131,.T.);
#94=FACE_OUTER_BOUND('',#133,.T.);
#95=EDGE_LOOP('',(#355,#356,#357,#358,#359,#360,#361,#362));
#96=EDGE_LOOP('',(#363,#364,#365,#366));
#97=EDGE_LOOP('',(#367,#368,#369,#370));
#98=EDGE_LOOP('',(#371,#372,#373,#374));
#99=EDGE_LOOP('',(#375,#376,#377,#378));
#100=EDGE_LOOP('',(#379,#380,#381,#382,#383,#384,#385,#386));
#101=EDGE_LOOP('',(#387));
#102=EDGE_LOOP('',(#388));
#103=EDGE_LOOP('',(#389));
#104=EDGE_LOOP('',(#390));
#105=EDGE_LOOP('',(#391,#392,#393,#394));
#106=EDGE_LOOP('',(#395,#396,#397,#398));
#107=EDGE_LOOP('',(#399,#400,#401,#402));
#108=EDGE_LOOP('',(#403,#404,#405,#406));
#109=EDGE_LOOP('',(#407,#408,#409,#410));
#110=EDGE_LOOP('',(#411,#412,#413,#414));
#111=EDGE_LOOP('',(#415));
#112=EDGE_LOOP('',(#416));
#113=EDGE_LOOP('',(#417,#418,#419,#420));
#114=EDGE_LOOP('',(#421));
#115=EDGE_LOOP('',(#422));
#116=EDGE_LOOP('',(#423,#424,#425,#426));
#117=EDGE_LOOP('',(#427));
#118=EDGE_LOOP('',(#428));
#119=EDGE_LOOP('',(#429,#430,#431,#432));
#120=EDGE_LOOP('',(#433));
#121=EDGE_LOOP('',(#434));
#122=EDGE_LOOP('',(#435,#436,#437,#438));
#123=EDGE_LOOP('',(#439,#440,#441,#442));
#124=EDGE_LOOP('',(#443,#444,#445,#446));
#125=EDGE_LOOP('',(#447,#448,#449,#450));
#126=EDGE_LOOP('',(#451,#452,#453,#454));
#127=EDGE_LOOP('',(#455,#456,#457,#458));
#128=EDGE_LOOP('',(#459,#460,#461,#462));
#129=EDGE_LOOP('',(#463,#464,#465,#466,#467,#468,#469,#470));
#130=EDGE_LOOP('',(#471,#472,#473,#474));
#131=EDGE_LOOP('',(#475,#476,#477,#478));
#132=EDGE_LOOP('',(#479,#480,#481,#482));
#133=EDGE_LOOP('',(#483,#484,#485,#486,#487,#488,#489,#490));
#134=EDGE_LOOP('',(#491,#492,#493,#494));
#135=EDGE_LOOP('',(#495));
#136=EDGE_LOOP('',(#496));
#137=EDGE_LOOP('',(#497));
#138=EDGE_LOOP('',(#498));
#139=LINE('',#765,#187);
#140=LINE('',#767,#188);
#141=LINE('',#769,#189);
#142=LINE('',#771,#190);
#143=LINE('',#773,#191);
#144=LINE('',#775,#192);
#145=LINE('',#777,#193);
#146=LINE('',#778,#194);
#147=LINE('',#781,#195);
#148=LINE('',#783,#196);
#149=LINE('',#784,#197);
#150=LINE('',#787,#198);
#151=LINE('',#789,#199);
#152=LINE('',#790,#200);
#153=LINE('',#792,#201);
#154=LINE('',#793,#202);
#155=LINE('',#799,#203);
#156=LINE('',#802,#204);
#157=LINE('',#805,#205);
#158=LINE('',#809,#206);
#159=LINE('',#813,#207);
#160=LINE('',#816,#208);
#161=LINE('',#827,#209);
#162=LINE('',#828,#210);
#163=LINE('',#832,#211);
#164=LINE('',#837,#212);
#165=LINE('',#838,#213);
#166=LINE('',#841,#214);
#167=LINE('',#842,#215);
#168=LINE('',#846,#216);
#169=LINE('',#849,#217);
#170=LINE('',#856,#218);
#171=LINE('',#863,#219);
#172=LINE('',#870,#220);
#173=LINE('',#878,#221);
#174=LINE('',#882,#222);
#175=LINE('',#886,#223);
#176=LINE('',#890,#224);
#177=LINE('',#894,#225);
#178=LINE('',#895,#226);
#179=LINE('',#896,#227);
#180=LINE('',#899,#228);
#181=LINE('',#900,#229);
#182=LINE('',#902,#230);
#183=LINE('',#905,#231);
#184=LINE('',#906,#232);
#185=LINE('',#908,#233);
#186=LINE('',#910,#234);
#187=VECTOR('',#607,10.);
#188=VECTOR('',#608,10.);
#189=VECTOR('',#609,10.);
#190=VECTOR('',#610,10.);
#191=VECTOR('',#611,10.);
#192=VECTOR('',#612,10.);
#193=VECTOR('',#613,10.);
#194=VECTOR('',#614,10.);
#195=VECTOR('',#617,10.);
#196=VECTOR('',#618,10.);
#197=VECTOR('',#619,10.);
#198=VECTOR('',#622,10.);
#199=VECTOR('',#623,10.);
#200=VECTOR('',#624,10.);
#201=VECTOR('',#627,10.);
#202=VECTOR('',#628,10.);
#203=VECTOR('',#633,10.);
#204=VECTOR('',#636,10.);
#205=VECTOR('',#639,10.);
#206=VECTOR('',#642,10.);
#207=VECTOR('',#645,10.);
#208=VECTOR('',#648,10.);
#209=VECTOR('',#659,10.);
#210=VECTOR('',#660,10.);
#211=VECTOR('',#665,10.);
#212=VECTOR('',#670,10.);
#213=VECTOR('',#671,10.);
#214=VECTOR('',#674,10.);
#215=VECTOR('',#675,10.);
#216=VECTOR('',#680,10.);
#217=VECTOR('',#683,3.);
#218=VECTOR('',#692,2.99999999999999);
#219=VECTOR('',#701,2.99999999999999);
#220=VECTOR('',#710,3.);
#221=VECTOR('',#721,1.7);
#222=VECTOR('',#726,1.7);
#223=VECTOR('',#731,1.7);
#224=VECTOR('',#736,1.7);
#225=VECTOR('',#739,10.);
#226=VECTOR('',#740,10.);
#227=VECTOR('',#741,10.);
#228=VECTOR('',#744,10.);
#229=VECTOR('',#745,10.);
#230=VECTOR('',#748,10.);
#231=VECTOR('',#751,10.);
#232=VECTOR('',#752,10.);
#233=VECTOR('',#755,10.);
#234=VECTOR('',#758,10.);
#235=VERTEX_POINT('',#763);
#236=VERTEX_POINT('',#764);
#237=VERTEX_POINT('',#766);
#238=VERTEX_POINT('',#768);
#239=VERTEX_POINT('',#770);
#240=VERTEX_POINT('',#772);
#241=VERTEX_POINT('',#774);
#242=VERTEX_POINT('',#776);
#243=VERTEX_POINT('',#780);
#244=VERTEX_POINT('',#782);
#245=VERTEX_POINT('',#786);
#246=VERTEX_POINT('',#788);
#247=VERTEX_POINT('',#795);
#248=VERTEX_POINT('',#796);
#249=VERTEX_POINT('',#798);
#250=VERTEX_POINT('',#800);
#251=VERTEX_POINT('',#804);
#252=VERTEX_POINT('',#806);
#253=VERTEX_POINT('',#808);
#254=VERTEX_POINT('',#810);
#255=VERTEX_POINT('',#812);
#256=VERTEX_POINT('',#814);
#257=VERTEX_POINT('',#817);
#258=VERTEX_POINT('',#819);
#259=VERTEX_POINT('',#821);
#260=VERTEX_POINT('',#823);
#261=VERTEX_POINT('',#826);
#262=VERTEX_POINT('',#830);
#263=VERTEX_POINT('',#834);
#264=VERTEX_POINT('',#835);
#265=VERTEX_POINT('',#840);
#266=VERTEX_POINT('',#844);
#267=VERTEX_POINT('',#848);
#268=VERTEX_POINT('',#852);
#269=VERTEX_POINT('',#855);
#270=VERTEX_POINT('',#859);
#271=VERTEX_POINT('',#862);
#272=VERTEX_POINT('',#866);
#273=VERTEX_POINT('',#869);
#274=VERTEX_POINT('',#873);
#275=VERTEX_POINT('',#876);
#276=VERTEX_POINT('',#880);
#277=VERTEX_POINT('',#884);
#278=VERTEX_POINT('',#888);
#279=VERTEX_POINT('',#892);
#280=VERTEX_POINT('',#893);
#281=VERTEX_POINT('',#898);
#282=VERTEX_POINT('',#904);
#283=EDGE_CURVE('',#235,#236,#139,.T.);
#284=EDGE_CURVE('',#237,#235,#140,.T.);
#285=EDGE_CURVE('',#237,#238,#141,.F.);
#286=EDGE_CURVE('',#239,#238,#142,.T.);
#287=EDGE_CURVE('',#240,#239,#143,.T.);
#288=EDGE_CURVE('',#241,#240,#144,.T.);
#289=EDGE_CURVE('',#242,#241,#145,.T.);
#290=EDGE_CURVE('',#236,#242,#146,.T.);
#291=EDGE_CURVE('',#238,#243,#147,.T.);
#292=EDGE_CURVE('',#244,#237,#148,.T.);
#293=EDGE_CURVE('',#244,#243,#149,.T.);
#294=EDGE_CURVE('',#243,#245,#150,.T.);
#295=EDGE_CURVE('',#246,#244,#151,.T.);
#296=EDGE_CURVE('',#246,#245,#152,.F.);
#297=EDGE_CURVE('',#245,#236,#153,.T.);
#298=EDGE_CURVE('',#235,#246,#154,.T.);
#299=EDGE_CURVE('',#247,#248,#29,.T.);
#300=EDGE_CURVE('',#248,#249,#155,.T.);
#301=EDGE_CURVE('',#249,#250,#30,.T.);
#302=EDGE_CURVE('',#250,#247,#156,.T.);
#303=EDGE_CURVE('',#249,#251,#157,.T.);
#304=EDGE_CURVE('',#252,#251,#31,.T.);
#305=EDGE_CURVE('',#252,#253,#158,.T.);
#306=EDGE_CURVE('',#254,#253,#32,.T.);
#307=EDGE_CURVE('',#254,#255,#159,.T.);
#308=EDGE_CURVE('',#256,#255,#33,.T.);
#309=EDGE_CURVE('',#256,#250,#160,.T.);
#310=EDGE_CURVE('',#257,#257,#34,.T.);
#311=EDGE_CURVE('',#258,#258,#35,.T.);
#312=EDGE_CURVE('',#259,#259,#36,.T.);
#313=EDGE_CURVE('',#260,#260,#37,.T.);
#314=EDGE_CURVE('',#261,#248,#161,.T.);
#315=EDGE_CURVE('',#251,#261,#162,.T.);
#316=EDGE_CURVE('',#261,#262,#38,.T.);
#317=EDGE_CURVE('',#262,#252,#163,.T.);
#318=EDGE_CURVE('',#263,#264,#39,.T.);
#319=EDGE_CURVE('',#264,#254,#164,.T.);
#320=EDGE_CURVE('',#253,#263,#165,.T.);
#321=EDGE_CURVE('',#265,#264,#166,.T.);
#322=EDGE_CURVE('',#255,#265,#167,.T.);
#323=EDGE_CURVE('',#265,#266,#40,.T.);
#324=EDGE_CURVE('',#266,#256,#168,.T.);
#325=EDGE_CURVE('',#260,#267,#169,.T.);
#326=EDGE_CURVE('',#267,#267,#41,.T.);
#327=EDGE_CURVE('',#268,#268,#42,.T.);
#328=EDGE_CURVE('',#259,#269,#170,.T.);
#329=EDGE_CURVE('',#269,#269,#43,.T.);
#330=EDGE_CURVE('',#270,#270,#44,.T.);
#331=EDGE_CURVE('',#258,#271,#171,.T.);
#332=EDGE_CURVE('',#271,#271,#45,.T.);
#333=EDGE_CURVE('',#272,#272,#46,.T.);
#334=EDGE_CURVE('',#257,#273,#172,.T.);
#335=EDGE_CURVE('',#273,#273,#47,.T.);
#336=EDGE_CURVE('',#274,#274,#48,.T.);
#337=EDGE_CURVE('',#275,#275,#49,.T.);
#338=EDGE_CURVE('',#275,#268,#173,.T.);
#339=EDGE_CURVE('',#276,#276,#50,.T.);
#340=EDGE_CURVE('',#276,#272,#174,.T.);
#341=EDGE_CURVE('',#277,#277,#51,.T.);
#342=EDGE_CURVE('',#277,#274,#175,.T.);
#343=EDGE_CURVE('',#278,#278,#52,.T.);
#344=EDGE_CURVE('',#278,#270,#176,.T.);
#345=EDGE_CURVE('',#279,#280,#177,.T.);
#346=EDGE_CURVE('',#241,#279,#178,.T.);
#347=EDGE_CURVE('',#240,#280,#179,.T.);
#348=EDGE_CURVE('',#239,#281,#180,.T.);
#349=EDGE_CURVE('',#280,#281,#181,.T.);
#350=EDGE_CURVE('',#263,#262,#182,.T.);
#351=EDGE_CURVE('',#242,#282,#183,.T.);
#352=EDGE_CURVE('',#281,#282,#184,.T.);
#353=EDGE_CURVE('',#282,#279,#185,.T.);
#354=EDGE_CURVE('',#247,#266,#186,.T.);
#355=ORIENTED_EDGE('',*,*,#283,.F.);
#356=ORIENTED_EDGE('',*,*,#284,.F.);
#357=ORIENTED_EDGE('',*,*,#285,.T.);
#358=ORIENTED_EDGE('',*,*,#286,.F.);
#359=ORIENTED_EDGE('',*,*,#287,.F.);
#360=ORIENTED_EDGE('',*,*,#288,.F.);
#361=ORIENTED_EDGE('',*,*,#289,.F.);
#362=ORIENTED_EDGE('',*,*,#290,.F.);
#363=ORIENTED_EDGE('',*,*,#291,.F.);
#364=ORIENTED_EDGE('',*,*,#285,.F.);
#365=ORIENTED_EDGE('',*,*,#292,.F.);
#366=ORIENTED_EDGE('',*,*,#293,.T.);
#367=ORIENTED_EDGE('',*,*,#294,.F.);
#368=ORIENTED_EDGE('',*,*,#293,.F.);
#369=ORIENTED_EDGE('',*,*,#295,.F.);
#370=ORIENTED_EDGE('',*,*,#296,.T.);
#371=ORIENTED_EDGE('',*,*,#297,.F.);
#372=ORIENTED_EDGE('',*,*,#296,.F.);
#373=ORIENTED_EDGE('',*,*,#298,.F.);
#374=ORIENTED_EDGE('',*,*,#283,.T.);
#375=ORIENTED_EDGE('',*,*,#299,.T.);
#376=ORIENTED_EDGE('',*,*,#300,.T.);
#377=ORIENTED_EDGE('',*,*,#301,.T.);
#378=ORIENTED_EDGE('',*,*,#302,.T.);
#379=ORIENTED_EDGE('',*,*,#301,.F.);
#380=ORIENTED_EDGE('',*,*,#303,.T.);
#381=ORIENTED_EDGE('',*,*,#304,.F.);
#382=ORIENTED_EDGE('',*,*,#305,.T.);
#383=ORIENTED_EDGE('',*,*,#306,.F.);
#384=ORIENTED_EDGE('',*,*,#307,.T.);
#385=ORIENTED_EDGE('',*,*,#308,.F.);
#386=ORIENTED_EDGE('',*,*,#309,.T.);
#387=ORIENTED_EDGE('',*,*,#310,.T.);
#388=ORIENTED_EDGE('',*,*,#311,.T.);
#389=ORIENTED_EDGE('',*,*,#312,.T.);
#390=ORIENTED_EDGE('',*,*,#313,.T.);
#391=ORIENTED_EDGE('',*,*,#300,.F.);
#392=ORIENTED_EDGE('',*,*,#314,.F.);
#393=ORIENTED_EDGE('',*,*,#315,.F.);
#394=ORIENTED_EDGE('',*,*,#303,.F.);
#395=ORIENTED_EDGE('',*,*,#316,.T.);
#396=ORIENTED_EDGE('',*,*,#317,.T.);
#397=ORIENTED_EDGE('',*,*,#304,.T.);
#398=ORIENTED_EDGE('',*,*,#315,.T.);
#399=ORIENTED_EDGE('',*,*,#318,.T.);
#400=ORIENTED_EDGE('',*,*,#319,.T.);
#401=ORIENTED_EDGE('',*,*,#306,.T.);
#402=ORIENTED_EDGE('',*,*,#320,.T.);
#403=ORIENTED_EDGE('',*,*,#319,.F.);
#404=ORIENTED_EDGE('',*,*,#321,.F.);
#405=ORIENTED_EDGE('',*,*,#322,.F.);
#406=ORIENTED_EDGE('',*,*,#307,.F.);
#407=ORIENTED_EDGE('',*,*,#323,.T.);
#408=ORIENTED_EDGE('',*,*,#324,.T.);
#409=ORIENTED_EDGE('',*,*,#308,.T.);
#410=ORIENTED_EDGE('',*,*,#322,.T.);
#411=ORIENTED_EDGE('',*,*,#313,.F.);
#412=ORIENTED_EDGE('',*,*,#325,.T.);
#413=ORIENTED_EDGE('',*,*,#326,.T.);
#414=ORIENTED_EDGE('',*,*,#325,.F.);
#415=ORIENTED_EDGE('',*,*,#326,.F.);
#416=ORIENTED_EDGE('',*,*,#327,.F.);
#417=ORIENTED_EDGE('',*,*,#312,.F.);
#418=ORIENTED_EDGE('',*,*,#328,.T.);
#419=ORIENTED_EDGE('',*,*,#329,.T.);
#420=ORIENTED_EDGE('',*,*,#328,.F.);
#421=ORIENTED_EDGE('',*,*,#329,.F.);
#422=ORIENTED_EDGE('',*,*,#330,.F.);
#423=ORIENTED_EDGE('',*,*,#311,.F.);
#424=ORIENTED_EDGE('',*,*,#331,.T.);
#425=ORIENTED_EDGE('',*,*,#332,.T.);
#426=ORIENTED_EDGE('',*,*,#331,.F.);
#427=ORIENTED_EDGE('',*,*,#332,.F.);
#428=ORIENTED_EDGE('',*,*,#333,.F.);
#429=ORIENTED_EDGE('',*,*,#310,.F.);
#430=ORIENTED_EDGE('',*,*,#334,.T.);
#431=ORIENTED_EDGE('',*,*,#335,.T.);
#432=ORIENTED_EDGE('',*,*,#334,.F.);
#433=ORIENTED_EDGE('',*,*,#335,.F.);
#434=ORIENTED_EDGE('',*,*,#336,.F.);
#435=ORIENTED_EDGE('',*,*,#337,.F.);
#436=ORIENTED_EDGE('',*,*,#338,.T.);
#437=ORIENTED_EDGE('',*,*,#327,.T.);
#438=ORIENTED_EDGE('',*,*,#338,.F.);
#439=ORIENTED_EDGE('',*,*,#339,.F.);
#440=ORIENTED_EDGE('',*,*,#340,.T.);
#441=ORIENTED_EDGE('',*,*,#333,.T.);
#442=ORIENTED_EDGE('',*,*,#340,.F.);
#443=ORIENTED_EDGE('',*,*,#341,.F.);
#444=ORIENTED_EDGE('',*,*,#342,.T.);
#445=ORIENTED_EDGE('',*,*,#336,.T.);
#446=ORIENTED_EDGE('',*,*,#342,.F.);
#447=ORIENTED_EDGE('',*,*,#343,.F.);
#448=ORIENTED_EDGE('',*,*,#344,.T.);
#449=ORIENTED_EDGE('',*,*,#330,.T.);
#450=ORIENTED_EDGE('',*,*,#344,.F.);
#451=ORIENTED_EDGE('',*,*,#345,.F.);
#452=ORIENTED_EDGE('',*,*,#346,.F.);
#453=ORIENTED_EDGE('',*,*,#288,.T.);
#454=ORIENTED_EDGE('',*,*,#347,.T.);
#455=ORIENTED_EDGE('',*,*,#287,.T.);
#456=ORIENTED_EDGE('',*,*,#348,.T.);
#457=ORIENTED_EDGE('',*,*,#349,.F.);
#458=ORIENTED_EDGE('',*,*,#347,.F.);
#459=ORIENTED_EDGE('',*,*,#317,.F.);
#460=ORIENTED_EDGE('',*,*,#350,.F.);
#461=ORIENTED_EDGE('',*,*,#320,.F.);
#462=ORIENTED_EDGE('',*,*,#305,.F.);
#463=ORIENTED_EDGE('',*,*,#286,.T.);
#464=ORIENTED_EDGE('',*,*,#291,.T.);
#465=ORIENTED_EDGE('',*,*,#294,.T.);
#466=ORIENTED_EDGE('',*,*,#297,.T.);
#467=ORIENTED_EDGE('',*,*,#290,.T.);
#468=ORIENTED_EDGE('',*,*,#351,.T.);
#469=ORIENTED_EDGE('',*,*,#352,.F.);
#470=ORIENTED_EDGE('',*,*,#348,.F.);
#471=ORIENTED_EDGE('',*,*,#289,.T.);
#472=ORIENTED_EDGE('',*,*,#346,.T.);
#473=ORIENTED_EDGE('',*,*,#353,.F.);
#474=ORIENTED_EDGE('',*,*,#351,.F.);
#475=ORIENTED_EDGE('',*,*,#302,.F.);
#476=ORIENTED_EDGE('',*,*,#309,.F.);
#477=ORIENTED_EDGE('',*,*,#324,.F.);
#478=ORIENTED_EDGE('',*,*,#354,.F.);
#479=ORIENTED_EDGE('',*,*,#284,.T.);
#480=ORIENTED_EDGE('',*,*,#298,.T.);
#481=ORIENTED_EDGE('',*,*,#295,.T.);
#482=ORIENTED_EDGE('',*,*,#292,.T.);
#483=ORIENTED_EDGE('',*,*,#299,.F.);
#484=ORIENTED_EDGE('',*,*,#354,.T.);
#485=ORIENTED_EDGE('',*,*,#323,.F.);
#486=ORIENTED_EDGE('',*,*,#321,.T.);
#487=ORIENTED_EDGE('',*,*,#318,.F.);
#488=ORIENTED_EDGE('',*,*,#350,.T.);
#489=ORIENTED_EDGE('',*,*,#316,.F.);
#490=ORIENTED_EDGE('',*,*,#314,.T.);
#491=ORIENTED_EDGE('',*,*,#345,.T.);
#492=ORIENTED_EDGE('',*,*,#349,.T.);
#493=ORIENTED_EDGE('',*,*,#352,.T.);
#494=ORIENTED_EDGE('',*,*,#353,.T.);
#495=ORIENTED_EDGE('',*,*,#343,.T.);
#496=ORIENTED_EDGE('',*,*,#341,.T.);
#497=ORIENTED_EDGE('',*,*,#339,.T.);
#498=ORIENTED_EDGE('',*,*,#337,.T.);
#499=PLANE('',#549);
#500=PLANE('',#550);
#501=PLANE('',#551);
#502=PLANE('',#552);
#503=PLANE('',#556);
#504=PLANE('',#564);
#505=PLANE('',#569);
#506=PLANE('',#574);
#507=PLANE('',#578);
#508=PLANE('',#582);
#509=PLANE('',#586);
#510=PLANE('',#596);
#511=PLANE('',#597);
#512=PLANE('',#598);
#513=PLANE('',#599);
#514=PLANE('',#600);
#515=PLANE('',#601);
#516=PLANE('',#602);
#517=ADVANCED_FACE('',(#65),#499,.F.);
#518=ADVANCED_FACE('',(#66),#500,.F.);
#519=ADVANCED_FACE('',(#67),#501,.F.);
#520=ADVANCED_FACE('',(#68),#502,.F.);
#521=ADVANCED_FACE('',(#69),#53,.T.);
#522=ADVANCED_FACE('',(#70,#15,#16,#17,#18),#503,.T.);
#523=ADVANCED_FACE('',(#71),#504,.T.);
#524=ADVANCED_FACE('',(#72),#54,.T.);
#525=ADVANCED_FACE('',(#73),#55,.T.);
#526=ADVANCED_FACE('',(#74),#505,.T.);
#527=ADVANCED_FACE('',(#75),#56,.T.);
#528=ADVANCED_FACE('',(#76),#57,.F.);
#529=ADVANCED_FACE('',(#77,#19),#506,.T.);
#530=ADVANCED_FACE('',(#78),#58,.F.);
#531=ADVANCED_FACE('',(#79,#20),#507,.T.);
#532=ADVANCED_FACE('',(#80),#59,.F.);
#533=ADVANCED_FACE('',(#81,#21),#508,.T.);
#534=ADVANCED_FACE('',(#82),#60,.F.);
#535=ADVANCED_FACE('',(#83,#22),#509,.T.);
#536=ADVANCED_FACE('',(#84),#61,.F.);
#537=ADVANCED_FACE('',(#85),#62,.F.);
#538=ADVANCED_FACE('',(#86),#63,.F.);
#539=ADVANCED_FACE('',(#87),#64,.F.);
#540=ADVANCED_FACE('',(#88),#510,.T.);
#541=ADVANCED_FACE('',(#89),#511,.T.);
#542=ADVANCED_FACE('',(#90),#512,.T.);
#543=ADVANCED_FACE('',(#91),#513,.T.);
#544=ADVANCED_FACE('',(#92),#514,.T.);
#545=ADVANCED_FACE('',(#93,#23),#515,.T.);
#546=ADVANCED_FACE('',(#94,#24,#25,#26,#27,#28),#516,.T.);
#547=CLOSED_SHELL('',(#517,#518,#519,#520,#521,#522,#523,#524,#525,#526,
#527,#528,#529,#530,#531,#532,#533,#534,#535,#536,#537,#538,#539,#540,#541,
#542,#543,#544,#545,#546));
#548=AXIS2_PLACEMENT_3D('',#761,#603,#604);
#549=AXIS2_PLACEMENT_3D('',#762,#605,#606);
#550=AXIS2_PLACEMENT_3D('',#779,#615,#616);
#551=AXIS2_PLACEMENT_3D('',#785,#620,#621);
#552=AXIS2_PLACEMENT_3D('',#791,#625,#626);
#553=AXIS2_PLACEMENT_3D('',#794,#629,#630);
#554=AXIS2_PLACEMENT_3D('',#797,#631,#632);
#555=AXIS2_PLACEMENT_3D('',#801,#634,#635);
#556=AXIS2_PLACEMENT_3D('',#803,#637,#638);
#557=AXIS2_PLACEMENT_3D('',#807,#640,#641);
#558=AXIS2_PLACEMENT_3D('',#811,#643,#644);
#559=AXIS2_PLACEMENT_3D('',#815,#646,#647);
#560=AXIS2_PLACEMENT_3D('',#818,#649,#650);
#561=AXIS2_PLACEMENT_3D('',#820,#651,#652);
#562=AXIS2_PLACEMENT_3D('',#822,#653,#654);
#563=AXIS2_PLACEMENT_3D('',#824,#655,#656);
#564=AXIS2_PLACEMENT_3D('',#825,#657,#658);
#565=AXIS2_PLACEMENT_3D('',#829,#661,#662);
#566=AXIS2_PLACEMENT_3D('',#831,#663,#664);
#567=AXIS2_PLACEMENT_3D('',#833,#666,#667);
#568=AXIS2_PLACEMENT_3D('',#836,#668,#669);
#569=AXIS2_PLACEMENT_3D('',#839,#672,#673);
#570=AXIS2_PLACEMENT_3D('',#843,#676,#677);
#571=AXIS2_PLACEMENT_3D('',#845,#678,#679);
#572=AXIS2_PLACEMENT_3D('',#847,#681,#682);
#573=AXIS2_PLACEMENT_3D('',#850,#684,#685);
#574=AXIS2_PLACEMENT_3D('',#851,#686,#687);
#575=AXIS2_PLACEMENT_3D('',#853,#688,#689);
#576=AXIS2_PLACEMENT_3D('',#854,#690,#691);
#577=AXIS2_PLACEMENT_3D('',#857,#693,#694);
#578=AXIS2_PLACEMENT_3D('',#858,#695,#696);
#579=AXIS2_PLACEMENT_3D('',#860,#697,#698);
#580=AXIS2_PLACEMENT_3D('',#861,#699,#700);
#581=AXIS2_PLACEMENT_3D('',#864,#702,#703);
#582=AXIS2_PLACEMENT_3D('',#865,#704,#705);
#583=AXIS2_PLACEMENT_3D('',#867,#706,#707);
#584=AXIS2_PLACEMENT_3D('',#868,#708,#709);
#585=AXIS2_PLACEMENT_3D('',#871,#711,#712);
#586=AXIS2_PLACEMENT_3D('',#872,#713,#714);
#587=AXIS2_PLACEMENT_3D('',#874,#715,#716);
#588=AXIS2_PLACEMENT_3D('',#875,#717,#718);
#589=AXIS2_PLACEMENT_3D('',#877,#719,#720);
#590=AXIS2_PLACEMENT_3D('',#879,#722,#723);
#591=AXIS2_PLACEMENT_3D('',#881,#724,#725);
#592=AXIS2_PLACEMENT_3D('',#883,#727,#728);
#593=AXIS2_PLACEMENT_3D('',#885,#729,#730);
#594=AXIS2_PLACEMENT_3D('',#887,#732,#733);
#595=AXIS2_PLACEMENT_3D('',#889,#734,#735);
#596=AXIS2_PLACEMENT_3D('',#891,#737,#738);
#597=AXIS2_PLACEMENT_3D('',#897,#742,#743);
#598=AXIS2_PLACEMENT_3D('',#901,#746,#747);
#599=AXIS2_PLACEMENT_3D('',#903,#749,#750);
#600=AXIS2_PLACEMENT_3D('',#907,#753,#754);
#601=AXIS2_PLACEMENT_3D('',#909,#756,#757);
#602=AXIS2_PLACEMENT_3D('',#911,#759,#760);
#603=DIRECTION('axis',(0.,0.,1.));
#604=DIRECTION('refdir',(1.,0.,0.));
#605=DIRECTION('center_axis',(0.,0.,-1.));
#606=DIRECTION('ref_axis',(1.,0.,0.));
#607=DIRECTION('',(0.,-1.,0.));
#608=DIRECTION('',(1.,0.,0.));
#609=DIRECTION('',(0.,1.,0.));
#610=DIRECTION('',(1.,0.,0.));
#611=DIRECTION('',(-4.19331558653519E-34,1.,0.));
#612=DIRECTION('',(-1.,-4.8031666893919E-33,0.));
#613=DIRECTION('',(0.,-1.,0.));
#614=DIRECTION('',(1.,0.,0.));
#615=DIRECTION('center_axis',(-1.,0.,0.));
#616=DIRECTION('ref_axis',(0.,0.,-1.));
#617=DIRECTION('',(0.,0.,1.));
#618=DIRECTION('',(0.,0.,-1.));
#619=DIRECTION('',(0.,-1.,0.));
#620=DIRECTION('center_axis',(0.,0.,1.));
#621=DIRECTION('ref_axis',(-1.,0.,0.));
#622=DIRECTION('',(1.,0.,0.));
#623=DIRECTION('',(-1.,0.,0.));
#624=DIRECTION('',(0.,1.,0.));
#625=DIRECTION('center_axis',(1.,0.,0.));
#626=DIRECTION('ref_axis',(0.,0.,1.));
#627=DIRECTION('',(0.,0.,-1.));
#628=DIRECTION('',(0.,0.,1.));
#629=DIRECTION('center_axis',(0.,0.,1.));
#630=DIRECTION('ref_axis',(0.707106781186547,0.707106781186548,0.));
#631=DIRECTION('center_axis',(0.,0.,-1.));
#632=DIRECTION('ref_axis',(0.707106781186547,0.707106781186548,0.));
#633=DIRECTION('',(0.,0.,-1.));
#634=DIRECTION('center_axis',(0.,0.,1.));
#635=DIRECTION('ref_axis',(0.707106781186547,0.707106781186548,0.));
#636=DIRECTION('',(0.,0.,1.));
#637=DIRECTION('center_axis',(0.,0.,-1.));
#638=DIRECTION('ref_axis',(-1.,0.,0.));
#639=DIRECTION('',(0.,-1.,0.));
#640=DIRECTION('center_axis',(0.,0.,1.));
#641=DIRECTION('ref_axis',(0.707106781186547,-0.707106781186548,0.));
#642=DIRECTION('',(-1.,0.,0.));
#643=DIRECTION('center_axis',(0.,0.,1.));
#644=DIRECTION('ref_axis',(-0.707106781186547,-0.707106781186548,0.));
#645=DIRECTION('',(0.,1.,0.));
#646=DIRECTION('center_axis',(0.,0.,1.));
#647=DIRECTION('ref_axis',(-0.707106781186548,0.707106781186547,0.));
#648=DIRECTION('',(1.,0.,0.));
#649=DIRECTION('center_axis',(0.,0.,1.));
#650=DIRECTION('ref_axis',(1.,0.,0.));
#651=DIRECTION('center_axis',(0.,0.,1.));
#652=DIRECTION('ref_axis',(1.,0.,0.));
#653=DIRECTION('center_axis',(0.,0.,1.));
#654=DIRECTION('ref_axis',(1.,0.,0.));
#655=DIRECTION('center_axis',(0.,0.,1.));
#656=DIRECTION('ref_axis',(1.,0.,0.));
#657=DIRECTION('center_axis',(1.,0.,0.));
#658=DIRECTION('ref_axis',(0.,1.,0.));
#659=DIRECTION('',(0.,1.,0.));
#660=DIRECTION('',(0.,0.,1.));
#661=DIRECTION('center_axis',(0.,0.,1.));
#662=DIRECTION('ref_axis',(0.707106781186547,-0.707106781186548,0.));
#663=DIRECTION('center_axis',(0.,0.,-1.));
#664=DIRECTION('ref_axis',(0.707106781186547,-0.707106781186548,0.));
#665=DIRECTION('',(0.,0.,-1.));
#666=DIRECTION('center_axis',(0.,0.,1.));
#667=DIRECTION('ref_axis',(-0.707106781186547,-0.707106781186548,0.));
#668=DIRECTION('center_axis',(0.,0.,-1.));
#669=DIRECTION('ref_axis',(-0.707106781186547,-0.707106781186548,0.));
#670=DIRECTION('',(0.,0.,-1.));
#671=DIRECTION('',(0.,0.,1.));
#672=DIRECTION('center_axis',(-1.,0.,0.));
#673=DIRECTION('ref_axis',(0.,-1.,0.));
#674=DIRECTION('',(0.,-1.,0.));
#675=DIRECTION('',(0.,0.,1.));
#676=DIRECTION('center_axis',(0.,0.,1.));
#677=DIRECTION('ref_axis',(-0.707106781186548,0.707106781186547,0.));
#678=DIRECTION('center_axis',(0.,0.,-1.));
#679=DIRECTION('ref_axis',(-0.707106781186548,0.707106781186547,0.));
#680=DIRECTION('',(0.,0.,-1.));
#681=DIRECTION('center_axis',(0.,0.,1.));
#682=DIRECTION('ref_axis',(1.,0.,0.));
#683=DIRECTION('',(0.,0.,1.));
#684=DIRECTION('center_axis',(0.,0.,1.));
#685=DIRECTION('ref_axis',(1.,0.,0.));
#686=DIRECTION('center_axis',(0.,0.,-1.));
#687=DIRECTION('ref_axis',(1.,0.,0.));
#688=DIRECTION('center_axis',(0.,0.,-1.));
#689=DIRECTION('ref_axis',(1.,0.,0.));
#690=DIRECTION('center_axis',(0.,0.,1.));
#691=DIRECTION('ref_axis',(1.,0.,0.));
#692=DIRECTION('',(0.,0.,1.));
#693=DIRECTION('center_axis',(0.,0.,1.));
#694=DIRECTION('ref_axis',(1.,0.,0.));
#695=DIRECTION('center_axis',(0.,0.,-1.));
#696=DIRECTION('ref_axis',(1.,0.,0.));
#697=DIRECTION('center_axis',(0.,0.,-1.));
#698=DIRECTION('ref_axis',(1.,0.,0.));
#699=DIRECTION('center_axis',(0.,0.,1.));
#700=DIRECTION('ref_axis',(1.,0.,0.));
#701=DIRECTION('',(0.,0.,1.));
#702=DIRECTION('center_axis',(0.,0.,1.));
#703=DIRECTION('ref_axis',(1.,0.,0.));
#704=DIRECTION('center_axis',(0.,0.,-1.));
#705=DIRECTION('ref_axis',(1.,0.,0.));
#706=DIRECTION('center_axis',(0.,0.,-1.));
#707=DIRECTION('ref_axis',(1.,0.,0.));
#708=DIRECTION('center_axis',(0.,0.,1.));
#709=DIRECTION('ref_axis',(1.,0.,0.));
#710=DIRECTION('',(0.,0.,1.));
#711=DIRECTION('center_axis',(0.,0.,1.));
#712=DIRECTION('ref_axis',(1.,0.,0.));
#713=DIRECTION('center_axis',(0.,0.,-1.));
#714=DIRECTION('ref_axis',(1.,0.,0.));
#715=DIRECTION('center_axis',(0.,0.,-1.));
#716=DIRECTION('ref_axis',(1.,0.,0.));
#717=DIRECTION('center_axis',(0.,0.,-1.));
#718=DIRECTION('ref_axis',(1.,0.,0.));
#719=DIRECTION('center_axis',(0.,0.,-1.));
#720=DIRECTION('ref_axis',(1.,0.,0.));
#721=DIRECTION('',(0.,0.,-1.));
#722=DIRECTION('center_axis',(0.,0.,-1.));
#723=DIRECTION('ref_axis',(1.,0.,0.));
#724=DIRECTION('center_axis',(0.,0.,-1.));
#725=DIRECTION('ref_axis',(1.,0.,0.));
#726=DIRECTION('',(0.,0.,-1.));
#727=DIRECTION('center_axis',(0.,0.,-1.));
#728=DIRECTION('ref_axis',(1.,0.,0.));
#729=DIRECTION('center_axis',(0.,0.,-1.));
#730=DIRECTION('ref_axis',(1.,0.,0.));
#731=DIRECTION('',(0.,0.,-1.));
#732=DIRECTION('center_axis',(0.,0.,-1.));
#733=DIRECTION('ref_axis',(1.,0.,0.));
#734=DIRECTION('center_axis',(0.,0.,-1.));
#735=DIRECTION('ref_axis',(1.,0.,0.));
#736=DIRECTION('',(0.,0.,-1.));
#737=DIRECTION('center_axis',(-4.8031666893919E-33,1.,0.));
#738=DIRECTION('ref_axis',(-1.,-4.8031666893919E-33,0.));
#739=DIRECTION('',(-1.,-4.8031666893919E-33,0.));
#740=DIRECTION('',(0.,0.,1.));
#741=DIRECTION('',(0.,0.,1.));
#742=DIRECTION('center_axis',(1.,4.19331558653519E-34,0.));
#743=DIRECTION('ref_axis',(-4.19331558653519E-34,1.,0.));
#744=DIRECTION('',(0.,0.,1.));
#745=DIRECTION('',(-4.19331558653519E-34,1.,0.));
#746=DIRECTION('center_axis',(0.,-1.,0.));
#747=DIRECTION('ref_axis',(1.,0.,0.));
#748=DIRECTION('',(1.,0.,0.));
#749=DIRECTION('center_axis',(0.,-1.,0.));
#750=DIRECTION('ref_axis',(1.,0.,0.));
#751=DIRECTION('',(0.,0.,1.));
#752=DIRECTION('',(1.,0.,0.));
#753=DIRECTION('center_axis',(-1.,0.,0.));
#754=DIRECTION('ref_axis',(0.,-1.,0.));
#755=DIRECTION('',(0.,-1.,0.));
#756=DIRECTION('center_axis',(0.,1.,0.));
#757=DIRECTION('ref_axis',(-1.,0.,0.));
#758=DIRECTION('',(-1.,0.,0.));
#759=DIRECTION('center_axis',(0.,0.,1.));
#760=DIRECTION('ref_axis',(1.,0.,0.));
#761=CARTESIAN_POINT('',(0.,0.,0.));
#762=CARTESIAN_POINT('Origin',(36.,74.3,3.));
#763=CARTESIAN_POINT('',(46.6,74.3,3.));
#764=CARTESIAN_POINT('',(46.6,64.3,3.));
#765=CARTESIAN_POINT('',(46.6,74.3,3.));
#766=CARTESIAN_POINT('',(36.,74.3,3.));
#767=CARTESIAN_POINT('',(64.3,74.3,3.));
#768=CARTESIAN_POINT('',(36.,64.3,3.));
#769=CARTESIAN_POINT('',(36.,74.3,3.));
#770=CARTESIAN_POINT('',(-2.69630192214213E-32,64.3,3.));
#771=CARTESIAN_POINT('',(20.65,64.3,3.));
#772=CARTESIAN_POINT('',(0.,0.,3.));
#773=CARTESIAN_POINT('',(0.,16.075,3.));
#774=CARTESIAN_POINT('',(82.6,0.,3.));
#775=CARTESIAN_POINT('',(61.95,0.,3.));
#776=CARTESIAN_POINT('',(82.6,64.3,3.));
#777=CARTESIAN_POINT('',(82.6,48.225,3.));
#778=CARTESIAN_POINT('',(20.65,64.3,3.));
#779=CARTESIAN_POINT('Origin',(36.,74.3,7.));
#780=CARTESIAN_POINT('',(36.,64.3,9.));
#781=CARTESIAN_POINT('',(36.,64.3,3.5));
#782=CARTESIAN_POINT('',(36.,74.3,9.));
#783=CARTESIAN_POINT('',(36.,74.3,3.5));
#784=CARTESIAN_POINT('',(36.,74.3,9.));
#785=CARTESIAN_POINT('Origin',(46.6,74.3,9.));
#786=CARTESIAN_POINT('',(46.6,64.3,9.));
#787=CARTESIAN_POINT('',(23.3,64.3,9.));
#788=CARTESIAN_POINT('',(46.6,74.3,9.));
#789=CARTESIAN_POINT('',(69.6,74.3,9.));
#790=CARTESIAN_POINT('',(46.6,74.3,9.));
#791=CARTESIAN_POINT('Origin',(46.6,74.3,4.));
#792=CARTESIAN_POINT('',(46.6,64.3,2.));
#793=CARTESIAN_POINT('',(46.6,74.3,2.));
#794=CARTESIAN_POINT('Origin',(85.6,67.3,0.));
#795=CARTESIAN_POINT('',(85.6,74.3,11.));
#796=CARTESIAN_POINT('',(92.6,67.3,11.));
#797=CARTESIAN_POINT('Origin',(85.6,67.3,11.));
#798=CARTESIAN_POINT('',(92.6,67.3,0.));
#799=CARTESIAN_POINT('',(92.6,67.3,0.));
#800=CARTESIAN_POINT('',(85.6,74.3,0.));
#801=CARTESIAN_POINT('Origin',(85.6,67.3,0.));
#802=CARTESIAN_POINT('',(85.6,74.3,0.));
#803=CARTESIAN_POINT('Origin',(41.2999989651144,32.1499991696328,0.));
#804=CARTESIAN_POINT('',(92.6,-3.,0.));
#805=CARTESIAN_POINT('',(92.6,11.0749995848164,0.));
#806=CARTESIAN_POINT('',(85.6,-10.,0.));
#807=CARTESIAN_POINT('Origin',(85.6,-3.,0.));
#808=CARTESIAN_POINT('',(-3.,-10.,0.));
#809=CARTESIAN_POINT('',(15.6499994825572,-10.,0.));
#810=CARTESIAN_POINT('',(-10.,-3.,0.));
#811=CARTESIAN_POINT('Origin',(-3.,-3.,0.));
#812=CARTESIAN_POINT('',(-10.,67.3,0.));
#813=CARTESIAN_POINT('',(-10.,53.2249995848164,0.));
#814=CARTESIAN_POINT('',(-3.,74.3,0.));
#815=CARTESIAN_POINT('Origin',(-3.,67.3,0.));
#816=CARTESIAN_POINT('',(66.9499994825572,74.3,0.));
#817=CARTESIAN_POINT('',(-8.,-5.,0.));
#818=CARTESIAN_POINT('Origin',(-5.,-5.,0.));
#819=CARTESIAN_POINT('',(84.6,69.3,0.));
#820=CARTESIAN_POINT('Origin',(87.6,69.3,0.));
#821=CARTESIAN_POINT('',(84.6,-5.,0.));
#822=CARTESIAN_POINT('Origin',(87.6,-5.,0.));
#823=CARTESIAN_POINT('',(-8.,69.3,0.));
#824=CARTESIAN_POINT('Origin',(-5.,69.3,0.));
#825=CARTESIAN_POINT('Origin',(92.6,-10.,0.));
#826=CARTESIAN_POINT('',(92.6,-3.,11.));
#827=CARTESIAN_POINT('',(92.6,11.075,11.));
#828=CARTESIAN_POINT('',(92.6,-3.,0.));
#829=CARTESIAN_POINT('Origin',(85.6,-3.,0.));
#830=CARTESIAN_POINT('',(85.6,-10.,11.));
#831=CARTESIAN_POINT('Origin',(85.6,-3.,11.));
#832=CARTESIAN_POINT('',(85.6,-10.,0.));
#833=CARTESIAN_POINT('Origin',(-3.,-3.,0.));
#834=CARTESIAN_POINT('',(-3.,-10.,11.));
#835=CARTESIAN_POINT('',(-10.,-3.,11.));
#836=CARTESIAN_POINT('Origin',(-3.,-3.,11.));
#837=CARTESIAN_POINT('',(-10.,-3.,0.));
#838=CARTESIAN_POINT('',(-3.,-10.,0.));
#839=CARTESIAN_POINT('Origin',(-10.,74.3,0.));
#840=CARTESIAN_POINT('',(-10.,67.3,11.));
#841=CARTESIAN_POINT('',(-10.,53.225,11.));
#842=CARTESIAN_POINT('',(-10.,67.3,0.));
#843=CARTESIAN_POINT('Origin',(-3.,67.3,0.));
#844=CARTESIAN_POINT('',(-3.,74.3,11.));
#845=CARTESIAN_POINT('Origin',(-3.,67.3,11.));
#846=CARTESIAN_POINT('',(-3.,74.3,0.));
#847=CARTESIAN_POINT('Origin',(-5.,69.3,0.));
#848=CARTESIAN_POINT('',(-8.,69.3,3.));
#849=CARTESIAN_POINT('',(-8.,69.3,0.));
#850=CARTESIAN_POINT('Origin',(-5.,69.3,3.));
#851=CARTESIAN_POINT('Origin',(-5.,69.3,3.));
#852=CARTESIAN_POINT('',(-6.7,69.3,3.));
#853=CARTESIAN_POINT('Origin',(-5.,69.3,3.));
#854=CARTESIAN_POINT('Origin',(87.6,-5.,0.));
#855=CARTESIAN_POINT('',(84.6,-5.,3.));
#856=CARTESIAN_POINT('',(84.6,-5.,0.));
#857=CARTESIAN_POINT('Origin',(87.6,-5.,3.));
#858=CARTESIAN_POINT('Origin',(87.6,-5.,3.));
#859=CARTESIAN_POINT('',(85.9,-5.,3.));
#860=CARTESIAN_POINT('Origin',(87.6,-5.,3.));
#861=CARTESIAN_POINT('Origin',(87.6,69.3,0.));
#862=CARTESIAN_POINT('',(84.6,69.3,3.));
#863=CARTESIAN_POINT('',(84.6,69.3,0.));
#864=CARTESIAN_POINT('Origin',(87.6,69.3,3.));
#865=CARTESIAN_POINT('Origin',(87.6,69.3,3.));
#866=CARTESIAN_POINT('',(85.9,69.3,3.));
#867=CARTESIAN_POINT('Origin',(87.6,69.3,3.));
#868=CARTESIAN_POINT('Origin',(-5.,-5.,0.));
#869=CARTESIAN_POINT('',(-8.,-5.,3.));
#870=CARTESIAN_POINT('',(-8.,-5.,0.));
#871=CARTESIAN_POINT('Origin',(-5.,-5.,3.));
#872=CARTESIAN_POINT('Origin',(-5.,-5.,3.));
#873=CARTESIAN_POINT('',(-6.7,-5.,3.));
#874=CARTESIAN_POINT('Origin',(-5.,-5.,3.));
#875=CARTESIAN_POINT('Origin',(-5.,69.3,11.));
#876=CARTESIAN_POINT('',(-6.7,69.3,11.));
#877=CARTESIAN_POINT('Origin',(-5.,69.3,11.));
#878=CARTESIAN_POINT('',(-6.7,69.3,11.));
#879=CARTESIAN_POINT('Origin',(87.6,69.3,11.));
#880=CARTESIAN_POINT('',(85.9,69.3,11.));
#881=CARTESIAN_POINT('Origin',(87.6,69.3,11.));
#882=CARTESIAN_POINT('',(85.9,69.3,11.));
#883=CARTESIAN_POINT('Origin',(-5.,-5.,11.));
#884=CARTESIAN_POINT('',(-6.7,-5.,11.));
#885=CARTESIAN_POINT('Origin',(-5.,-5.,11.));
#886=CARTESIAN_POINT('',(-6.7,-5.,11.));
#887=CARTESIAN_POINT('Origin',(87.6,-5.,11.));
#888=CARTESIAN_POINT('',(85.9,-5.,11.));
#889=CARTESIAN_POINT('Origin',(87.6,-5.,11.));
#890=CARTESIAN_POINT('',(85.9,-5.,11.));
#891=CARTESIAN_POINT('Origin',(82.6,3.96741568543771E-31,0.));
#892=CARTESIAN_POINT('',(82.6,1.98370784271885E-31,11.));
#893=CARTESIAN_POINT('',(0.,0.,11.));
#894=CARTESIAN_POINT('',(61.95,0.,11.));
#895=CARTESIAN_POINT('',(82.6,3.96741568543771E-31,0.));
#896=CARTESIAN_POINT('',(0.,0.,0.));
#897=CARTESIAN_POINT('Origin',(0.,0.,0.));
#898=CARTESIAN_POINT('',(-1.34815096107107E-32,64.3,11.));
#899=CARTESIAN_POINT('',(-2.69630192214213E-32,64.3,0.));
#900=CARTESIAN_POINT('',(0.,16.075,11.));
#901=CARTESIAN_POINT('Origin',(-10.,-10.,0.));
#902=CARTESIAN_POINT('',(15.65,-10.,11.));
#903=CARTESIAN_POINT('Origin',(0.,64.3,0.));
#904=CARTESIAN_POINT('',(82.6,64.3,11.));
#905=CARTESIAN_POINT('',(82.6,64.3,0.));
#906=CARTESIAN_POINT('',(20.65,64.3,11.));
#907=CARTESIAN_POINT('Origin',(82.6,64.3,0.));
#908=CARTESIAN_POINT('',(82.6,48.225,11.));
#909=CARTESIAN_POINT('Origin',(92.6,74.3,0.));
#910=CARTESIAN_POINT('',(66.95,74.3,11.));
#911=CARTESIAN_POINT('Origin',(41.3,32.15,11.));
#912=UNCERTAINTY_MEASURE_WITH_UNIT(LENGTH_MEASURE(0.01),#916,
'DISTANCE_ACCURACY_VALUE',
'Maximum model space distance between geometric entities at asserted c
onnectivities');
#913=UNCERTAINTY_MEASURE_WITH_UNIT(LENGTH_MEASURE(0.01),#916,
'DISTANCE_ACCURACY_VALUE',
'Maximum model space distance between geometric entities at asserted c
onnectivities');
#914=(
GEOMETRIC_REPRESENTATION_CONTEXT(3)
GLOBAL_UNCERTAINTY_ASSIGNED_CONTEXT((#912))
GLOBAL_UNIT_ASSIGNED_CONTEXT((#916,#917,#918))
REPRESENTATION_CONTEXT('','3D')
);
#915=(
GEOMETRIC_REPRESENTATION_CONTEXT(3)
GLOBAL_UNCERTAINTY_ASSIGNED_CONTEXT((#913))
GLOBAL_UNIT_ASSIGNED_CONTEXT((#916,#917,#918))
REPRESENTATION_CONTEXT('','3D')
);
#916=(
LENGTH_UNIT()
NAMED_UNIT(*)
SI_UNIT(.MILLI.,.METRE.)
);
#917=(
NAMED_UNIT(*)
PLANE_ANGLE_UNIT()
SI_UNIT($,.RADIAN.)
);
#918=(
NAMED_UNIT(*)
SI_UNIT($,.STERADIAN.)
SOLID_ANGLE_UNIT()
);
#919=SHAPE_DEFINITION_REPRESENTATION(#920,#921);
#920=PRODUCT_DEFINITION_SHAPE('',$,#923);
#921=SHAPE_REPRESENTATION('',(#548),#914);
#922=PRODUCT_DEFINITION_CONTEXT('part definition',#927,'design');
#923=PRODUCT_DEFINITION('2026-09-06-19-07-55-393','Hackpad',#924,#922);
#924=PRODUCT_DEFINITION_FORMATION('',$,#929);
#925=PRODUCT_RELATED_PRODUCT_CATEGORY('Hackpad','Hackpad',(#929));
#926=APPLICATION_PROTOCOL_DEFINITION('international standard',
'automotive_design',2009,#927);
#927=APPLICATION_CONTEXT(
'Core Data for Automotive Mechanical Design Process');
#928=PRODUCT_CONTEXT('part definition',#927,'mechanical');
#929=PRODUCT('2026-09-06-19-07-55-393','Hackpad',$,(#928));
#930=PRESENTATION_STYLE_ASSIGNMENT((#932));
#931=PRESENTATION_STYLE_ASSIGNMENT((#933));
#932=SURFACE_STYLE_USAGE(.BOTH.,#934);
#933=SURFACE_STYLE_USAGE(.BOTH.,#935);
#934=SURFACE_SIDE_STYLE('',(#936));
#935=SURFACE_SIDE_STYLE('',(#937));
#936=SURFACE_STYLE_FILL_AREA(#938);
#937=SURFACE_STYLE_FILL_AREA(#939);
#938=FILL_AREA_STYLE('Stahl - satiniert',(#940));
#939=FILL_AREA_STYLE('Kunststoff - matt (Grau)',(#941));
#940=FILL_AREA_STYLE_COLOUR('Stahl - satiniert',#942);
#941=FILL_AREA_STYLE_COLOUR('Kunststoff - matt (Grau)',#943);
#942=COLOUR_RGB('Stahl - satiniert',0.627450980392157,0.627450980392157,
0.627450980392157);
#943=COLOUR_RGB('Kunststoff - matt (Grau)',0.701960784313725,0.701960784313725,
0.701960784313725);
ENDSEC;
END-ISO-10303-21;
